<?xml version="1.0" encoding="utf-8"?>
<!-- Generator: Adobe Illustrator 19.2.1, SVG Export Plug-In . SVG Version: 6.00 Build 0)  -->
<svg version="1.1" id="Layer_1" xmlns="http://www.w3.org/2000/svg" xmlns:xlink="http://www.w3.org/1999/xlink" x="0px" y="0px"
	 viewBox="0 0 900 100" style="enable-background:new 0 0 900 100;" xml:space="preserve">
<style type="text/css">
	.st0{fill:#FFCB41;stroke:#FFFFFF;stroke-width:3;stroke-miterlimit:10;}
	.st1{fill:#FFFFFF;stroke:#FFFFFF;stroke-width:3;stroke-miterlimit:10;}
	.st2{fill:#FFFFFF;}
	.st3{fill:#FFCB41;stroke:#FFCB41;stroke-width:3;stroke-miterlimit:10;}
	.st4{fill:#FFFFFF;stroke:#FFCB41;stroke-width:3;stroke-miterlimit:10;}
	.st5{fill:#FFCB41;}
</style>
<line class="st0" x1="31.4" y1="26.9" x2="31.4" y2="74.5"/>
<line class="st0" x1="48.9" y1="26.9" x2="48.9" y2="74.5"/>
<line class="st0" x1="66.5" y1="27" x2="66.5" y2="74.7"/>
<circle class="st1" cx="31.4" cy="46.2" r="3.6"/>
<circle class="st1" cx="48.9" cy="62.5" r="3.6"/>
<circle class="st1" cx="66.5" cy="35.9" r="3.6"/>
<g>
	<path class="st2" d="M50,3c25.9,0,47,21.1,47,47S75.9,97,50,97S3,75.9,3,50S24.1,3,50,3 M50,0C22.4,0,0,22.4,0,50s22.4,50,50,50
		s50-22.4,50-50S77.6,0,50,0L50,0z"/>
</g>
<line class="st0" x1="131.4" y1="26.9" x2="131.4" y2="74.5"/>
<line class="st0" x1="148.9" y1="26.9" x2="148.9" y2="74.5"/>
<line class="st0" x1="166.5" y1="27" x2="166.5" y2="74.7"/>
<circle class="st1" cx="131.4" cy="46.2" r="3.6"/>
<circle class="st1" cx="148.9" cy="62.5" r="3.6"/>
<circle class="st1" cx="166.5" cy="35.9" r="3.6"/>
<g>
	<path class="st2" d="M150,3c25.9,0,47,21.1,47,47s-21.1,47-47,47s-47-21.1-47-47S124.1,3,150,3 M150,0c-27.6,0-50,22.4-50,50
		s22.4,50,50,50s50-22.4,50-50S177.6,0,150,0L150,0z"/>
</g>
<line class="st0" x1="231.4" y1="26.9" x2="231.4" y2="74.5"/>
<line class="st0" x1="248.9" y1="26.9" x2="248.9" y2="74.5"/>
<line class="st0" x1="266.5" y1="27" x2="266.5" y2="74.7"/>
<circle class="st1" cx="231.4" cy="46.2" r="3.6"/>
<circle class="st1" cx="248.9" cy="62.5" r="3.6"/>
<circle class="st1" cx="266.5" cy="35.9" r="3.6"/>
<g>
	<path class="st2" d="M250,3c25.9,0,47,21.1,47,47s-21.1,47-47,47s-47-21.1-47-47S224.1,3,250,3 M250,0c-27.6,0-50,22.4-50,50
		s22.4,50,50,50s50-22.4,50-50S277.6,0,250,0L250,0z"/>
</g>
<line class="st3" x1="331.4" y1="26.9" x2="331.4" y2="74.5"/>
<line class="st3" x1="348.9" y1="26.9" x2="348.9" y2="74.5"/>
<line class="st3" x1="366.5" y1="27" x2="366.5" y2="74.7"/>
<circle class="st4" cx="331.4" cy="46.2" r="3.6"/>
<circle class="st4" cx="348.9" cy="62.5" r="3.6"/>
<circle class="st4" cx="366.5" cy="35.9" r="3.6"/>
<g>
	<path class="st5" d="M350,3c25.9,0,47,21.1,47,47s-21.1,47-47,47s-47-21.1-47-47S324.1,3,350,3 M350,0c-27.6,0-50,22.4-50,50
		s22.4,50,50,50s50-22.4,50-50S377.6,0,350,0L350,0z"/>
</g>
<line class="st3" x1="431.4" y1="26.9" x2="431.4" y2="74.5"/>
<line class="st3" x1="448.9" y1="26.9" x2="448.9" y2="74.5"/>
<line class="st3" x1="466.5" y1="27" x2="466.5" y2="74.7"/>
<circle class="st4" cx="431.4" cy="46.2" r="3.6"/>
<circle class="st4" cx="448.9" cy="62.5" r="3.6"/>
<circle class="st4" cx="466.5" cy="35.9" r="3.6"/>
<g>
	<path class="st5" d="M450,3c25.9,0,47,21.1,47,47s-21.1,47-47,47s-47-21.1-47-47S424.1,3,450,3 M450,0c-27.6,0-50,22.4-50,50
		s22.4,50,50,50s50-22.4,50-50S477.6,0,450,0L450,0z"/>
</g>
<line class="st3" x1="531.4" y1="26.9" x2="531.4" y2="74.5"/>
<line class="st3" x1="548.9" y1="26.9" x2="548.9" y2="74.5"/>
<line class="st3" x1="566.5" y1="27" x2="566.5" y2="74.7"/>
<circle class="st4" cx="531.4" cy="46.2" r="3.6"/>
<circle class="st4" cx="548.9" cy="62.5" r="3.6"/>
<circle class="st4" cx="566.5" cy="35.9" r="3.6"/>
<g>
	<path class="st5" d="M550,3c25.9,0,47,21.1,47,47s-21.1,47-47,47s-47-21.1-47-47S524.1,3,550,3 M550,0c-27.6,0-50,22.4-50,50
		s22.4,50,50,50s50-22.4,50-50S577.6,0,550,0L550,0z"/>
</g>
<line class="st3" x1="631.4" y1="26.9" x2="631.4" y2="74.5"/>
<line class="st3" x1="648.9" y1="26.9" x2="648.9" y2="74.5"/>
<line class="st3" x1="666.5" y1="27" x2="666.5" y2="74.7"/>
<circle class="st4" cx="631.4" cy="46.2" r="3.6"/>
<circle class="st4" cx="648.9" cy="62.5" r="3.6"/>
<circle class="st4" cx="666.5" cy="35.9" r="3.6"/>
<g>
	<path class="st5" d="M650,3c25.9,0,47,21.1,47,47s-21.1,47-47,47s-47-21.1-47-47S624.1,3,650,3 M650,0c-27.6,0-50,22.4-50,50
		s22.4,50,50,50s50-22.4,50-50S677.6,0,650,0L650,0z"/>
</g>
<line class="st3" x1="731.4" y1="26.9" x2="731.4" y2="74.5"/>
<line class="st3" x1="748.9" y1="26.9" x2="748.9" y2="74.5"/>
<line class="st3" x1="766.5" y1="27" x2="766.5" y2="74.7"/>
<circle class="st4" cx="731.4" cy="46.2" r="3.6"/>
<circle class="st4" cx="748.9" cy="62.5" r="3.6"/>
<circle class="st4" cx="766.5" cy="35.9" r="3.6"/>
<g>
	<path class="st5" d="M750,3c25.9,0,47,21.1,47,47s-21.1,47-47,47s-47-21.1-47-47S724.1,3,750,3 M750,0c-27.6,0-50,22.4-50,50
		s22.4,50,50,50s50-22.4,50-50S777.6,0,750,0L750,0z"/>
</g>
<line class="st3" x1="831.4" y1="26.9" x2="831.4" y2="74.5"/>
<line class="st3" x1="848.9" y1="26.9" x2="848.9" y2="74.5"/>
<line class="st3" x1="866.5" y1="27" x2="866.5" y2="74.7"/>
<circle class="st4" cx="831.4" cy="46.2" r="3.6"/>
<circle class="st4" cx="848.9" cy="62.5" r="3.6"/>
<circle class="st4" cx="866.5" cy="35.9" r="3.6"/>
<g>
	<path class="st5" d="M850,3c25.9,0,47,21.1,47,47s-21.1,47-47,47s-47-21.1-47-47S824.1,3,850,3 M850,0c-27.6,0-50,22.4-50,50
		s22.4,50,50,50s50-22.4,50-50S877.6,0,850,0L850,0z"/>
</g>
</svg>
