<?xml version="1.0" encoding="utf-8"?>
<!-- Generator: Adobe Illustrator 19.2.1, SVG Export Plug-In . SVG Version: 6.00 Build 0)  -->
<svg version="1.1" id="Layer_1" xmlns="http://www.w3.org/2000/svg" xmlns:xlink="http://www.w3.org/1999/xlink" x="0px" y="0px"
	 viewBox="0 0 1200 100" style="enable-background:new 0 0 1200 100;" xml:space="preserve">
<style type="text/css">
	.st0{fill:#FFFFFF;}
	.st1{fill:#FFCB41;}
	.st2{fill:#FFCB41;stroke:#FFCB41;stroke-width:3;stroke-linecap:round;stroke-miterlimit:10;}
	.st3{fill:#FFFFFF;stroke:#FFCB41;stroke-width:3;stroke-miterlimit:10;}
	.st4{fill:#6DCDE7;}
	.st5{fill:#E14C85;}
	.st6{fill:none;stroke:#E14C85;stroke-width:3;stroke-linejoin:round;stroke-miterlimit:10;}
	.st7{fill:none;stroke:#E14C85;stroke-width:3;stroke-miterlimit:10;}
	.st8{fill:#FFFFFF;stroke:#E14C85;stroke-width:3;stroke-miterlimit:10;}
	.st9{fill:none;stroke:#FFCB41;stroke-width:3;stroke-linejoin:round;stroke-miterlimit:10;}
	.st10{fill:none;stroke:#FFFFFF;stroke-width:3;stroke-miterlimit:10;}
	.st11{fill:none;stroke:#FFFFFF;stroke-width:5;stroke-miterlimit:10;}
	.st12{fill:none;stroke:#FFCB41;stroke-width:3;stroke-miterlimit:10;}
	.st13{fill:none;stroke:#FFFFFF;stroke-width:3;stroke-linecap:round;stroke-linejoin:round;stroke-miterlimit:10;}
	.st14{fill:none;stroke:#FFFFFF;stroke-width:3;stroke-linecap:round;stroke-miterlimit:10;}
	.st15{fill:#FFFFFF;stroke:#FFFFFF;stroke-width:0.5;stroke-miterlimit:10;}
	.st16{fill:#FFFFFF;stroke:#FFFFFF;stroke-miterlimit:10;}
	.st17{fill:#6DCDE7;stroke:#6DCDE7;stroke-width:0.5;stroke-miterlimit:10;}
	.st18{fill:#6DCDE7;stroke:#6DCDE7;stroke-miterlimit:10;}
	.st19{fill:none;stroke:#6DCDE7;stroke-miterlimit:10;}
	.st20{fill:none;stroke:#6DCDE7;stroke-width:3;stroke-miterlimit:10;}
	.st21{fill:none;stroke:#6DCDE7;stroke-width:3;stroke-linecap:round;stroke-linejoin:round;stroke-miterlimit:10;}
	.st22{fill:none;stroke:#6DCDE7;stroke-width:3;stroke-linecap:round;stroke-miterlimit:10;}
</style>
<g>
	<path class="st0" d="M50,3c25.9,0,47,21.1,47,47S75.9,97,50,97S3,75.9,3,50S24.1,3,50,3 M50,0C22.4,0,0,22.4,0,50s22.4,50,50,50
		s50-22.4,50-50S77.6,0,50,0L50,0z"/>
</g>
<g>
	<path class="st0" d="M150,3c25.9,0,47,21.1,47,47s-21.1,47-47,47s-47-21.1-47-47S124.1,3,150,3 M150,0c-27.6,0-50,22.4-50,50
		s22.4,50,50,50s50-22.4,50-50S177.6,0,150,0L150,0z"/>
</g>
<g>
	<path class="st0" d="M250,3c25.9,0,47,21.1,47,47s-21.1,47-47,47s-47-21.1-47-47S224.1,3,250,3 M250,0c-27.6,0-50,22.4-50,50
		s22.4,50,50,50s50-22.4,50-50S277.6,0,250,0L250,0z"/>
</g>
<g>
	<path class="st1" d="M350,3c25.9,0,47,21.1,47,47s-21.1,47-47,47s-47-21.1-47-47S324.1,3,350,3 M350,0c-27.6,0-50,22.4-50,50
		s22.4,50,50,50s50-22.4,50-50S377.6,0,350,0L350,0z"/>
</g>
<g>
	<path class="st1" d="M450,3c25.9,0,47,21.1,47,47s-21.1,47-47,47s-47-21.1-47-47S424.1,3,450,3 M450,0c-27.6,0-50,22.4-50,50
		s22.4,50,50,50s50-22.4,50-50S477.6,0,450,0L450,0z"/>
</g>
<g>
	<path class="st1" d="M550,3c25.9,0,47,21.1,47,47s-21.1,47-47,47s-47-21.1-47-47S524.1,3,550,3 M550,0c-27.6,0-50,22.4-50,50
		s22.4,50,50,50s50-22.4,50-50S577.6,0,550,0L550,0z"/>
</g>
<line class="st2" x1="431.4" y1="26.9" x2="431.4" y2="74.5"/>
<line class="st2" x1="448.9" y1="26.9" x2="448.9" y2="74.5"/>
<line class="st2" x1="466.5" y1="27" x2="466.5" y2="74.7"/>
<circle class="st3" cx="431.4" cy="46.2" r="3.6"/>
<circle class="st3" cx="448.9" cy="62.5" r="3.6"/>
<circle class="st3" cx="466.5" cy="35.9" r="3.6"/>
<g>
	<path class="st4" d="M650,3c25.9,0,47,21.1,47,47s-21.1,47-47,47s-47-21.1-47-47S624.1,3,650,3 M650,0c-27.6,0-50,22.4-50,50
		s22.4,50,50,50s50-22.4,50-50S677.6,0,650,0L650,0z"/>
</g>
<g>
	<path class="st5" d="M1050,3c25.9,0,47,21.1,47,47s-21.1,47-47,47s-47-21.1-47-47S1024.1,3,1050,3 M1050,0c-27.6,0-50,22.4-50,50
		s22.4,50,50,50s50-22.4,50-50S1077.6,0,1050,0L1050,0z"/>
</g>
<g>
	<path class="st5" d="M1150,3c25.9,0,47,21.1,47,47s-21.1,47-47,47s-47-21.1-47-47S1124.1,3,1150,3 M1150,0c-27.6,0-50,22.4-50,50
		s22.4,50,50,50s50-22.4,50-50S1177.6,0,1150,0L1150,0z"/>
</g>
<rect x="1026" y="35.1" class="st6" width="48.1" height="31.5"/>
<polyline class="st7" points="1026,35.1 1050,55.7 1074,35.1 "/>
<path class="st6" d="M1166.8,39.5c0,2.2-0.4,4.5-1.2,6.6c-1.6,4.3-16.4,32.6-17.1,33.9c-1.3-2.6-2.7-5.2-4-7.9
	c-2.5-4.8-5-9.7-7.4-14.5c-1.6-3.2-3.4-6.3-4.8-9.6c-1.1-2.7-2.3-5.7-2.3-8.6c0-10.2,8.3-18.4,18.4-18.4
	C1158.6,21.1,1166.8,29.3,1166.8,39.5z"/>
<circle class="st8" cx="1148.4" cy="40" r="7.7"/>
<g>
	<g>
		<path class="st1" d="M556.9,52.7c-0.5,0-1.1-0.3-1.6-0.7c-0.9-0.9-1-2.1-0.2-2.9c0.4-0.4,0.8-0.6,1.3-0.6c0.6,0,1.1,0.3,1.6,0.8
			c0.9,0.9,1,2,0.1,2.9C557.8,52.5,557.3,52.7,556.9,52.7L556.9,52.7z"/>
		<path class="st1" d="M556.4,49c0.4,0,0.8,0.2,1.2,0.6c0.4,0.4,0.6,0.8,0.6,1.2c0,0.4-0.1,0.7-0.4,1c-0.2,0.2-0.5,0.4-0.9,0.4
			c-0.4,0-0.8-0.2-1.2-0.6c-0.4-0.4-0.6-0.8-0.6-1.2c0-0.4,0.1-0.7,0.4-1C555.7,49.1,556.1,49,556.4,49 M556.4,48
			c-0.6,0-1.2,0.2-1.6,0.7c-1,1-1,2.4,0.2,3.6c0.6,0.6,1.3,0.9,1.9,0.9c0.6,0,1.2-0.2,1.6-0.7c1-1,1-2.4-0.1-3.6
			C557.7,48.3,557,48,556.4,48L556.4,48z"/>
	</g>
	<g>
		<path class="st1" d="M541.4,52.9c-0.5,0-1.1-0.2-1.5-0.7c-0.5-0.5-0.7-1-0.8-1.5c0-0.5,0.2-0.9,0.6-1.3c0.4-0.4,0.8-0.6,1.3-0.6
			c0.5,0,1.1,0.3,1.6,0.8c0.4,0.4,0.7,1,0.7,1.5c0,0.5-0.2,1-0.6,1.3C542.4,52.7,541.9,52.9,541.4,52.9L541.4,52.9z"/>
		<path class="st1" d="M541,49.2c0.4,0,0.8,0.2,1.3,0.6c0.4,0.4,0.6,0.7,0.6,1.1c0,0.3-0.1,0.7-0.4,1c-0.3,0.3-0.6,0.4-0.9,0.4
			c-0.4,0-0.8-0.2-1.2-0.6c-0.4-0.4-0.6-0.8-0.6-1.2c0-0.4,0.2-0.8,0.4-1C540.3,49.4,540.6,49.2,541,49.2 M541,48.2
			c-0.6,0-1.2,0.2-1.6,0.7c-1,1-1,2.4,0.2,3.6c0.6,0.6,1.2,0.9,1.9,0.9c0.6,0,1.2-0.2,1.6-0.7c1-1,1-2.4-0.1-3.5
			C542.3,48.5,541.6,48.2,541,48.2L541,48.2z"/>
	</g>
	<g>
		<path class="st1" d="M544.4,76c-0.1,0-0.2,0-0.3-0.1l-20.7-20.7c-0.2-0.2-0.2-0.5,0-0.6l29.6-29.6c0.1-0.1,0.2-0.1,0.3-0.1
			l18.4,2.4c0.2,0,0.4,0.2,0.4,0.4l2.4,18.3c0,0.1,0,0.3-0.1,0.4l-29.6,29.6C544.6,76,544.5,76,544.4,76z M546.6,38.6
			c-0.4,0-0.7,0.2-1,0.4c-0.4,0.4-0.5,0.9-0.4,1.4l4.6,21.1c0.1,0.7,0.7,1.1,1.4,1.1c0.4,0,0.7-0.2,1-0.4c0.4-0.4,0.5-0.9,0.4-1.3
			L548,39.7C547.9,39.1,547.3,38.6,546.6,38.6z M541.3,45.1c-1.5,0-2.8,0.6-4,1.7c-2.3,2.3-2.3,5.6,0,7.9c1.1,1.1,2.4,1.7,3.8,1.7
			c1.4,0,2.8-0.6,4-1.8c2.3-2.3,2.4-5.6,0.1-7.8C544.1,45.7,542.7,45.1,541.3,45.1z M556.7,44.9c-1.4,0-2.9,0.6-4,1.7
			c-2.3,2.3-2.3,5.6,0,7.9c1.1,1.1,2.4,1.7,3.8,1.7c1.4,0,2.8-0.6,4-1.7c1.1-1.1,1.8-2.5,1.8-4c0-1.4-0.6-2.8-1.7-3.9
			C559.5,45.5,558.1,44.9,556.7,44.9z M568.4,29.3c-0.6,0-1.1,0.2-1.6,0.6c-0.9,0.9-0.9,2.3,0,3.1c0.4,0.4,1,0.6,1.6,0.6
			s1.1-0.2,1.6-0.6c0.4-0.4,0.6-1,0.6-1.6c0-0.6-0.2-1.1-0.6-1.6C569.6,29.6,569,29.3,568.4,29.3z"/>
		<path class="st1" d="M553.2,25.3l18.3,2.4l2.4,18.2l-29.6,29.6l-20.7-20.7L553.2,25.3 M568.4,34.3c0.7,0,1.4-0.3,1.9-0.8
			c0.5-0.5,0.8-1.2,0.8-1.9c0-0.7-0.3-1.4-0.8-1.9c-0.5-0.5-1.2-0.8-1.9-0.8c-0.7,0-1.4,0.3-1.9,0.8s-0.8,1.2-0.8,1.9
			c0,0.7,0.3,1.4,0.8,1.9C567,34,567.7,34.3,568.4,34.3 M546.2,47.2c-0.2-0.2-0.4-0.5-0.6-0.7c-1.2-1.2-2.7-1.8-4.3-1.8
			c-1.6,0-3.1,0.7-4.3,1.9c-1.2,1.2-1.9,2.8-1.9,4.4c0,1.5,0.7,3,1.8,4.2c1.2,1.2,2.6,1.8,4.2,1.8c1.6,0,3.1-0.7,4.3-1.9
			c0.9-0.9,1.5-2,1.8-3.1l2.1,9.7c0.2,0.9,1,1.5,1.9,1.5c0.5,0,1-0.2,1.4-0.6c0.5-0.5,0.7-1.1,0.5-1.8l-1.4-6.5
			c0.2,0.2,0.4,0.5,0.6,0.7c1.2,1.2,2.7,1.8,4.2,1.8c1.6,0,3.1-0.7,4.3-1.9c2.5-2.5,2.6-6.1,0.1-8.6c-1.2-1.2-2.7-1.8-4.3-1.8
			c-1.6,0-3.1,0.7-4.3,1.9c-0.9,0.9-1.4,1.9-1.7,3l-2.1-9.6c-0.2-0.9-1-1.5-1.9-1.5c-0.5,0-1,0.2-1.4,0.6c-0.5,0.5-0.7,1.1-0.5,1.8
			L546.2,47.2 M553.2,24.3c-0.3,0-0.5,0.1-0.7,0.3L523,54.2c-0.4,0.4-0.4,1,0,1.3l20.7,20.7c0.2,0.2,0.4,0.3,0.7,0.3
			c0.2,0,0.5-0.1,0.7-0.3l29.6-29.6c0.2-0.2,0.3-0.5,0.3-0.8l-2.4-18.3c-0.1-0.4-0.4-0.8-0.8-0.8l-18.3-2.4
			C553.3,24.3,553.3,24.3,553.2,24.3L553.2,24.3z M568.4,33.3c-0.4,0-0.9-0.2-1.2-0.5c-0.7-0.7-0.7-1.8,0-2.4
			c0.3-0.3,0.8-0.5,1.2-0.5c0.4,0,0.9,0.2,1.2,0.5c0.7,0.7,0.7,1.8,0,2.4C569.3,33.1,568.9,33.3,568.4,33.3L568.4,33.3z M551.3,62.1
			c-0.4,0-0.8-0.3-0.9-0.7l-4.6-21.1c-0.1-0.3,0-0.6,0.3-0.9l0,0c0.2-0.2,0.4-0.3,0.7-0.3c0.4,0,0.8,0.3,0.9,0.7l4.6,21.1
			c0.1,0.3,0,0.6-0.3,0.9v0C551.7,62,551.5,62.1,551.3,62.1L551.3,62.1z M556.5,55.7c-1.3,0-2.5-0.5-3.5-1.5c-2-2-2.2-5,0-7.2
			c1.1-1.1,2.4-1.6,3.6-1.6c1.3,0,2.6,0.5,3.6,1.5c2,2,2.1,5-0.1,7.1C559.1,55.2,557.8,55.7,556.5,55.7L556.5,55.7z M541.1,55.9
			c-1.3,0-2.5-0.5-3.5-1.5c-2-2-2.2-5,0-7.2c1.1-1.1,2.4-1.6,3.6-1.6c1.3,0,2.6,0.5,3.6,1.6c2,2,2.1,4.9-0.1,7.1
			C543.6,55.4,542.4,55.9,541.1,55.9L541.1,55.9z"/>
	</g>
</g>
<rect x="327.8" y="25.3" class="st9" width="39" height="49.1"/>
<g>
	<path class="st1" d="M340,75.4c-1.1,0-2.1-0.9-2.1-2.1V48.7c0-1.1,0.9-2.1,2.1-2.1h36.7c1.1,0,2.1,0.9,2.1,2.1v24.6
		c0,1.1-0.9,2.1-2.1,2.1H340z"/>
	<path class="st1" d="M376.8,47.1c0.9,0,1.6,0.7,1.6,1.6v24.6c0,0.9-0.7,1.6-1.6,1.6H340c-0.9,0-1.6-0.7-1.6-1.6V48.7
		c0-0.9,0.7-1.6,1.6-1.6H376.8 M376.8,46.1H340c-1.4,0-2.6,1.1-2.6,2.6v24.6c0,1.4,1.1,2.6,2.6,2.6h36.7c1.4,0,2.6-1.1,2.6-2.6V48.7
		C379.3,47.3,378.2,46.1,376.8,46.1L376.8,46.1z"/>
</g>
<path class="st10" d="M367.5,52.8c0,6.9-4.1,12.5-9.3,12.5c-5.1,0-9.3-5.6-9.3-12.5"/>
<circle class="st0" cx="349" cy="52.4" r="1.8"/>
<circle class="st0" cx="367.5" cy="52.4" r="1.8"/>
<path class="st11" d="M337.6,31.3c0-6.9,4.1-12.5,9.3-12.5c5.1,0,9.3,5.6,9.3,12.5"/>
<path class="st12" d="M337.7,31.3c0-6.9,4.1-12.5,9.3-12.5c5.1,0,9.3,5.6,9.3,12.5"/>
<circle class="st1" cx="356.2" cy="31.8" r="1.8"/>
<circle class="st1" cx="337.7" cy="31.8" r="1.8"/>
<g>
	<path class="st0" d="M254.7,49.7c-1,1-1,2.4,0.2,3.6c1.2,1.2,2.6,1.2,3.5,0.2c1-1,1-2.4-0.1-3.6C257.2,48.7,255.7,48.7,254.7,49.7z
		"/>
	<path class="st0" d="M239.3,49.9c-1,1-1,2.4,0.2,3.6c1.1,1.1,2.6,1.1,3.5,0.1c1-1,1-2.4-0.1-3.5C241.7,48.9,240.3,48.9,239.3,49.9z
		"/>
	<g>
		<path class="st0" d="M244.4,77c-0.1,0-0.2,0-0.3-0.1l-20.7-20.7c-0.1-0.1-0.1-0.2-0.1-0.3s0-0.2,0.1-0.3l29.6-29.6
			c0.1-0.1,0.2-0.1,0.3-0.1l18.4,2.4c0.2,0,0.4,0.2,0.4,0.4l2.4,18.3c0,0.1,0,0.3-0.1,0.4l-29.6,29.6C244.6,77,244.5,77,244.4,77z
			 M246.6,39.6c-0.4,0-0.7,0.2-1,0.4c-0.4,0.4-0.5,0.9-0.4,1.4l4.6,21.1c0.1,0.7,0.7,1.1,1.4,1.1c0.4,0,0.7-0.2,1-0.4
			c0.4-0.4,0.5-0.9,0.4-1.3L248,40.7C247.9,40.1,247.3,39.6,246.6,39.6z M241.3,46.1c-1.5,0-2.8,0.6-4,1.7c-2.3,2.3-2.3,5.6,0,7.9
			c1.1,1.1,2.4,1.7,3.8,1.7c1.4,0,2.8-0.6,4-1.8c2.3-2.3,2.4-5.6,0.1-7.8C244.1,46.7,242.7,46.1,241.3,46.1z M256.7,45.9
			c-1.4,0-2.9,0.6-4,1.7c-2.3,2.3-2.3,5.6,0,7.9c1.1,1.1,2.4,1.7,3.8,1.7c1.4,0,2.8-0.6,4-1.7c1.1-1.1,1.8-2.5,1.8-4
			c0-1.4-0.6-2.8-1.7-3.9C259.5,46.5,258.1,45.9,256.7,45.9z M268.4,30.3c-0.6,0-1.1,0.2-1.6,0.6c-0.9,0.9-0.9,2.3,0,3.1
			c0.4,0.4,1,0.6,1.6,0.6s1.1-0.2,1.6-0.6c0.4-0.4,0.6-1,0.6-1.6c0-0.6-0.2-1.1-0.6-1.6C269.6,30.6,269,30.3,268.4,30.3z"/>
		<path class="st0" d="M253.2,26.3l18.3,2.4l2.4,18.2l-29.6,29.6l-20.7-20.7L253.2,26.3 M268.4,35.3c0.7,0,1.4-0.3,1.9-0.8
			c0.5-0.5,0.8-1.2,0.8-1.9c0-0.7-0.3-1.4-0.8-1.9c-0.5-0.5-1.2-0.8-1.9-0.8c-0.7,0-1.4,0.3-1.9,0.8c-0.5,0.5-0.8,1.2-0.8,1.9
			c0,0.7,0.3,1.4,0.8,1.9C267,35,267.7,35.3,268.4,35.3 M246.2,48.2c-0.2-0.2-0.4-0.5-0.6-0.7c-1.2-1.2-2.7-1.8-4.3-1.8
			c-1.6,0-3.1,0.7-4.3,1.9c-1.2,1.2-1.9,2.8-1.9,4.4c0,1.5,0.7,3,1.8,4.2c1.2,1.2,2.6,1.8,4.2,1.8c1.6,0,3.1-0.7,4.3-1.9
			c0.9-0.9,1.5-2,1.8-3.1l2.1,9.7c0.2,0.9,1,1.5,1.9,1.5c0.5,0,1-0.2,1.4-0.6c0.5-0.5,0.7-1.1,0.5-1.8l-1.4-6.5
			c0.2,0.2,0.4,0.5,0.6,0.7c1.2,1.2,2.7,1.8,4.2,1.8c1.6,0,3.1-0.7,4.3-1.9c2.5-2.5,2.6-6.1,0.1-8.6c-1.2-1.2-2.7-1.8-4.3-1.8
			c-1.6,0-3.1,0.7-4.3,1.9c-0.9,0.9-1.4,1.9-1.7,3l-2.1-9.6c-0.2-0.9-1-1.5-1.9-1.5c-0.5,0-1,0.2-1.4,0.6c-0.5,0.5-0.7,1.1-0.5,1.8
			L246.2,48.2 M253.2,25.3c-0.3,0-0.5,0.1-0.7,0.3L223,55.2c-0.4,0.4-0.4,1,0,1.3l20.7,20.7c0.2,0.2,0.4,0.3,0.7,0.3
			c0.2,0,0.5-0.1,0.7-0.3l29.6-29.6c0.2-0.2,0.3-0.5,0.3-0.8l-2.4-18.3c-0.1-0.4-0.4-0.8-0.8-0.8l-18.3-2.4
			C253.3,25.3,253.3,25.3,253.2,25.3L253.2,25.3z M268.4,34.3c-0.4,0-0.9-0.2-1.2-0.5c-0.7-0.7-0.7-1.8,0-2.4
			c0.3-0.3,0.8-0.5,1.2-0.5c0.4,0,0.9,0.2,1.2,0.5c0.7,0.7,0.7,1.8,0,2.4C269.3,34.1,268.9,34.3,268.4,34.3L268.4,34.3z M251.3,63.1
			c-0.4,0-0.8-0.3-0.9-0.7l-4.6-21.1c-0.1-0.3,0-0.6,0.3-0.9l0,0c0.2-0.2,0.4-0.3,0.7-0.3c0.4,0,0.8,0.3,0.9,0.7l4.6,21.1
			c0.1,0.3,0,0.6-0.3,0.9v0C251.7,63,251.5,63.1,251.3,63.1L251.3,63.1z M256.5,56.7c-1.3,0-2.5-0.5-3.5-1.5c-2-2-2.2-5,0-7.2
			c1.1-1.1,2.4-1.6,3.6-1.6c1.3,0,2.6,0.5,3.6,1.5c2,2,2.1,5-0.1,7.1C259.1,56.2,257.8,56.7,256.5,56.7L256.5,56.7z M241.1,56.9
			c-1.3,0-2.5-0.5-3.5-1.5c-2-2-2.2-5,0-7.2c1.1-1.1,2.4-1.6,3.6-1.6c1.3,0,2.6,0.5,3.6,1.6c2,2,2.1,4.9-0.1,7.1
			C243.6,56.4,242.4,56.9,241.1,56.9L241.1,56.9z"/>
	</g>
</g>
<polygon class="st13" points="133.3,41.8 138.7,61.2 170.5,57.9 173.6,41.8 "/>
<ellipse transform="matrix(0.9999 -1.607226e-02 1.607226e-02 0.9999 -1.1002 2.2776)" class="st0" cx="141.2" cy="69.6" rx="3.5" ry="3.5"/>
<ellipse transform="matrix(0.9999 -1.607226e-02 1.607226e-02 0.9999 -1.097 2.6789)" class="st0" cx="166.1" cy="69.6" rx="3.5" ry="3.5"/>
<line class="st14" x1="138.9" y1="63.4" x2="170" y2="63.4"/>
<line class="st14" x1="137.9" y1="51.5" x2="171.4" y2="49.2"/>
<line class="st14" x1="146.7" y1="41.9" x2="149.7" y2="58.8"/>
<line class="st14" x1="160.6" y1="41.8" x2="159.8" y2="58.9"/>
<polyline class="st13" points="138.9,63.4 131.8,36.5 121.1,32.2 "/>
<g>
	<path class="st15" d="M57,27.2c-0.5-1.6-2.2-2.5-3.8-1.9L16.3,37.4c-1.6,0.5-2.5,2.2-1.9,3.8l7.1,21.5c0.5,1.6,2.2,2.5,3.8,1.9
		l8.1-2.7v-7.5l-8.7,3c-0.1,0-0.2,0.1-0.3,0.1c-0.4,0-0.8-0.3-1-0.7c-0.2-0.5,0.1-1.1,0.6-1.3l9.3-3.3v-9.5c0-2.8,2.3-5.1,5.1-5.1
		h22.1L57,27.2z M29.9,49.5l-6,2c-1,0.3-2-0.2-2.4-1.2l-1.3-3.8c-0.3-1,0.2-2,1.2-2.4l6-2c1-0.3,2,0.2,2.4,1.2l1.3,3.8
		C31.4,48.1,30.8,49.2,29.9,49.5z"/>
	<path class="st16" d="M79.1,40.6H39.7c-2.1,0-3.8,1.7-3.8,3.8v23.2c0,2.1,1.7,3.8,3.8,3.8h39.4c2.1,0,3.8-1.7,3.8-3.8V44.3
		C82.9,42.3,81.2,40.6,79.1,40.6z M38,44.3c0-1,0.8-1.7,1.7-1.7h39.4c1,0,1.7,0.8,1.7,1.7V49H38V44.3z M80.9,67.6
		c0,1-0.8,1.7-1.7,1.7H39.7c-1,0-1.7-0.8-1.7-1.7V54.5h42.9V67.6z"/>
	<path class="st15" d="M54.4,59.9H41.9c-0.6,0-1-0.5-1-1s0.5-1,1-1h12.5c0.6,0,1,0.5,1,1S55,59.9,54.4,59.9z"/>
</g>
<g>
	<path class="st4" d="M750,3c25.9,0,47,21.1,47,47s-21.1,47-47,47s-47-21.1-47-47S724.1,3,750,3 M750,0c-27.6,0-50,22.4-50,50
		s22.4,50,50,50s50-22.4,50-50S777.6,0,750,0L750,0z"/>
</g>
<g>
	<path class="st4" d="M850,3c25.9,0,47,21.1,47,47s-21.1,47-47,47s-47-21.1-47-47S824.1,3,850,3 M850,0c-27.6,0-50,22.4-50,50
		s22.4,50,50,50s50-22.4,50-50S877.6,0,850,0L850,0z"/>
</g>
<g>
	<path class="st4" d="M950,3c25.9,0,47,21.1,47,47s-21.1,47-47,47s-47-21.1-47-47S924.1,3,950,3 M950,0c-27.6,0-50,22.4-50,50
		s22.4,50,50,50s50-22.4,50-50S977.6,0,950,0L950,0z"/>
</g>
<g>
	<path class="st17" d="M757.3,27.2c-0.5-1.6-2.2-2.5-3.8-1.9l-36.9,12.1c-1.6,0.5-2.5,2.2-1.9,3.8l7.1,21.5c0.5,1.6,2.2,2.5,3.8,1.9
		l8.1-2.7v-7.5l-8.7,3c-0.1,0-0.2,0.1-0.3,0.1c-0.4,0-0.8-0.3-1-0.7c-0.2-0.5,0.1-1.1,0.6-1.3l9.3-3.3v-9.5c0-2.8,2.3-5.1,5.1-5.1
		h22.1L757.3,27.2z M730.2,49.5l-6,2c-1,0.3-2-0.2-2.4-1.2l-1.3-3.8c-0.3-1,0.2-2,1.2-2.4l6-2c1-0.3,2,0.2,2.4,1.2l1.3,3.8
		C731.7,48.1,731.2,49.2,730.2,49.5z"/>
	<path class="st18" d="M779.5,40.6h-39.4c-2.1,0-3.8,1.7-3.8,3.8v23.2c0,2.1,1.7,3.8,3.8,3.8h39.4c2.1,0,3.8-1.7,3.8-3.8V44.3
		C783.3,42.3,781.6,40.6,779.5,40.6z M738.4,44.3c0-1,0.8-1.7,1.7-1.7h39.4c1,0,1.7,0.8,1.7,1.7V49h-42.9V44.3z M781.2,67.6
		c0,1-0.8,1.7-1.7,1.7h-39.4c-1,0-1.7-0.8-1.7-1.7V54.5h42.9V67.6z"/>
	<path class="st17" d="M754.8,59.9h-12.5c-0.6,0-1-0.5-1-1s0.5-1,1-1h12.5c0.6,0,1,0.5,1,1S755.3,59.9,754.8,59.9z"/>
</g>
<g>
	<g>
		<path class="st4" d="M954.3,80.1c0,0.1-0.1,0.2-0.2,0.2h-5.4c-0.1,0-0.2-0.1-0.2-0.2v-4.7c0-0.1,0.1-0.2,0.2-0.2h5.4
			c0.1,0,0.2,0.1,0.2,0.2V80.1z"/>
		<path class="st19" d="M954.3,80.1c0,0.1-0.1,0.2-0.2,0.2h-5.4c-0.1,0-0.2-0.1-0.2-0.2v-4.7c0-0.1,0.1-0.2,0.2-0.2h5.4
			c0.1,0,0.2,0.1,0.2,0.2V80.1z"/>
	</g>
	<path class="st20" d="M963.2,56.1c-1.3,2.6-4,5.9-5,8.7c-0.1,0.4-0.8,3.3-1.3,4.7c-0.2,0.4-0.3,0.7-0.4,0.7h-10.4
		c-0.1,0-0.3-0.3-0.4-0.7c-0.5-1.4-1.1-4.2-1.2-4.7c-0.9-2.8-3.6-6.1-5-8.7c-3.7-7.3-3.5-17.2,5.3-21.1c3.2-1.4,6.8-1.4,10.2-0.8
		c1,0.2,2,0.4,2.9,0.8C966.8,39,967,48.8,963.2,56.1z"/>
	<line class="st21" x1="921.7" y1="48.7" x2="932.1" y2="50.7"/>
	<line class="st21" x1="928.7" y1="27.7" x2="936.5" y2="34.7"/>
	<line class="st21" x1="951.4" y1="17.7" x2="951.4" y2="28.2"/>
	<line class="st21" x1="981.4" y1="48.7" x2="971.1" y2="50.7"/>
	<line class="st21" x1="974.5" y1="27.7" x2="966.7" y2="34.7"/>
	<g>
		<path class="st4" d="M957.3,76.3c0,0.2-0.1,0.3-0.3,0.3h-11c-0.2,0-0.3-0.1-0.3-0.3v-5.7c0-0.2,0.1-0.3,0.3-0.3h11
			c0.2,0,0.3,0.1,0.3,0.3V76.3z"/>
		<path class="st19" d="M957.3,76.3c0,0.2-0.1,0.3-0.3,0.3h-11c-0.2,0-0.3-0.1-0.3-0.3v-5.7c0-0.2,0.1-0.3,0.3-0.3h11
			c0.2,0,0.3,0.1,0.3,0.3V76.3z"/>
	</g>
	<line class="st21" x1="945.2" y1="49.8" x2="949.5" y2="63.4"/>
	<line class="st21" x1="957.5" y1="49.8" x2="953.1" y2="63.4"/>
</g>
<polygon class="st21" points="832.5,42.7 838,62.1 869.8,58.8 872.9,42.7 "/>
<ellipse transform="matrix(0.9999 -1.607226e-02 1.607226e-02 0.9999 -1.0236 13.5167)" class="st4" cx="840.4" cy="70.4" rx="3.5" ry="3.5"/>
<ellipse transform="matrix(0.9999 -1.607226e-02 1.607226e-02 0.9999 -1.0204 13.9179)" class="st4" cx="865.4" cy="70.4" rx="3.5" ry="3.5"/>
<line class="st22" x1="838.2" y1="64.2" x2="869.3" y2="64.2"/>
<line class="st22" x1="837.1" y1="52.4" x2="870.7" y2="50"/>
<line class="st22" x1="845.9" y1="42.8" x2="849" y2="59.6"/>
<line class="st22" x1="859.9" y1="42.6" x2="859" y2="59.7"/>
<polyline class="st21" points="838.2,64.2 831.1,37.3 820.4,33.1 "/>
<path class="st20" d="M650.5,38.6"/>
<path class="st22" d="M649.9,40.1c-2.6,0-4.8-2.1-4.8-4.8c0-2.6,2.1-4.8,4.8-4.8c2.6,0,4.8,2.1,4.8,4.8"/>
<path class="st20" d="M650,43.9l32.1,14.8c2.2,1,1.5,4.2-0.9,4.2h-62.4c-2.4,0-3.1-3.2-0.9-4.2L650,43.9z"/>
<line class="st20" x1="650" y1="43.9" x2="649.9" y2="40.1"/>
</svg>
